<svg width="40" height="28" viewBox="0 0 40 28" fill="none" xmlns="http://www.w3.org/2000/svg">
<path d="M0.244141 14.5891L12.7441 27.0891C13.0697 27.4146 13.597 27.4146 13.9225 27.0891C14.248 26.7635 14.248 26.2362 13.9225 25.9107L2.845 14.8332L39.1666 14.8332C39.6273 14.8332 40 14.4605 40 13.9999C40 13.5392 39.6273 13.1665 39.1666 13.1665L2.845 13.1665L13.9225 2.08909C14.248 1.76355 14.248 1.23621 13.9225 0.910738C13.7598 0.748003 13.5465 0.666597 13.3333 0.666597C13.1201 0.666597 12.9069 0.748003 12.7441 0.910738L0.244061 13.4107C-0.0814056 13.7362 -0.0814056 14.2635 0.244141 14.5891Z" fill="#263164"/>
</svg>
