<svg width="135" height="40" viewBox="0 0 135 40" fill="none" xmlns="http://www.w3.org/2000/svg">
<g clip-path="url(#clip0_1_19104)">
<path d="M134.573 23.4813C134.145 23.6809 133.785 23.7918 133.471 23.7918C132.976 23.7918 132.661 23.5479 132.661 22.8161V19.4015H134.865V18.049H132.661V15.9647H130.794V18.049H129.692L129.714 19.4015H130.794V23.1709C130.794 24.7452 131.806 25.4547 133.066 25.4547C133.74 25.4547 134.415 25.2552 135 24.9004L134.573 23.4813ZM125.508 17.672C124.249 17.6942 123.281 18.1598 122.742 19.1576V17.7385H120.852V25.366H122.742V21.6188C122.742 20.3549 123.484 19.4459 124.766 19.4237C125.846 19.4237 126.475 20.0889 126.475 21.1532V25.366H128.365V20.5989C128.365 18.7807 127.285 17.672 125.508 17.672ZM116.646 17.7385V25.366H118.535V17.7385H116.646ZM110.956 19.2463C112.238 19.2463 113.115 20.1776 113.115 21.5523C113.115 22.927 112.215 23.8583 110.956 23.8583C109.651 23.8583 108.751 22.927 108.751 21.5523C108.751 20.1997 109.651 19.2463 110.956 19.2463ZM110.956 17.672C108.504 17.672 106.862 19.2241 106.862 21.5301C106.862 23.8583 108.504 25.4104 110.956 25.4104C113.362 25.4104 115.027 23.8361 115.027 21.5301C115.004 19.2241 113.362 17.672 110.956 17.672ZM101.936 20.7319H99.8217V17.0512H101.936C103.376 17.0512 104.208 17.6498 104.208 18.8694C104.208 20.1332 103.376 20.7319 101.936 20.7319ZM102.026 15.3882H97.8874V25.366H99.8217V22.4392H102.026C104.568 22.4392 106.03 21.1088 106.03 18.825C106.03 16.6299 104.568 15.3882 102.026 15.3882ZM95.0083 23.437C94.446 23.437 94.0187 23.8583 94.0187 24.4569C94.0187 25.0556 94.446 25.4991 95.0083 25.4991C95.5931 25.4991 95.998 25.0556 95.998 24.4569C95.998 23.8361 95.5706 23.437 95.0083 23.437ZM92.6466 23.4813C92.2193 23.6809 91.8594 23.7918 91.5445 23.7918C91.0497 23.7918 90.7348 23.5479 90.7348 22.8161V19.4015H92.939V18.049H90.7348V15.9647H88.8679V18.049H87.7657L87.7882 19.4015H88.8679V23.1709C88.8679 24.7452 89.88 25.4547 91.1396 25.4547C91.8144 25.4547 92.4892 25.2552 93.074 24.9004L92.6466 23.4813ZM84.6168 19.202V17.7385H82.7274V25.366H84.6168V21.6853C84.6168 20.3106 85.6065 19.3572 87.2484 19.468V17.672C86.0338 17.672 85.1341 18.2042 84.6168 19.202ZM74.3377 21.6188L76.1371 17.4281L77.8915 21.6188H74.3377ZM79.4885 25.366H81.5803L77.1943 15.3882H75.1924L70.7614 25.366H72.7632L73.6629 23.2596H78.6113L79.4885 25.366ZM67.0277 17.672C65.6781 17.6942 64.6659 18.2485 64.1486 19.4902C63.7887 18.3372 62.844 17.672 61.4945 17.672C60.2574 17.6942 59.3127 18.1377 58.7729 19.1576V17.7385H56.8835V25.366H58.7729V21.5966C58.7729 20.3549 59.5152 19.4459 60.7298 19.4015C61.7644 19.4015 62.4167 20.0667 62.4167 21.131V25.3439H64.3061V21.5745C64.3061 20.3328 65.0483 19.4237 66.2629 19.3793C67.2976 19.3793 67.9498 20.0445 67.9498 21.1088V25.3217H69.8392V20.5989C69.8392 18.7807 68.7596 17.672 67.0277 17.672ZM54.2294 18.0046L55.0167 16.3416C54.0495 15.7208 52.6999 15.2773 51.3504 15.2773C49.0786 15.2773 47.5716 16.386 47.5716 18.1377C47.5716 21.6853 53.0148 20.5102 53.0148 22.5944C53.0148 23.2818 52.3625 23.6809 51.2829 23.6809C50.2033 23.6809 48.8312 23.1266 47.7741 22.2175L46.9643 23.8361C48.044 24.7895 49.6185 25.4326 51.2379 25.4326C53.4647 25.4326 55.1066 24.3461 55.1066 22.4836C55.1291 18.9137 49.6859 20.0002 49.6859 17.9824C49.6859 17.3616 50.2707 17.0512 51.1929 17.0512C51.9802 17.029 53.1498 17.3616 54.2294 18.0046Z" fill="white"/>
<path d="M17.4767 2.92676L1.84439 11.7516C4.2061 15.7206 6.56781 19.6895 8.92953 23.6585L13.2031 9.80038L17.4767 2.92676ZM18.7588 33.3037L20.2208 38.0931L36.3929 28.9578L36.0105 25.2106L29.4202 28.3148L18.7588 33.3037ZM4.22859 29.5786L18.4439 37.6274L17.1393 33.348L9.08698 26.5188L4.22859 29.5786ZM1.95685 29.6008V14.9667L0.112466 11.8625C-0.112459 11.5077 0.0224958 11.0421 0.382376 10.8203C6.72526 7.27266 13.0457 3.68064 19.366 0.110796C19.636 -0.0444144 19.9509 -0.0222415 20.1758 0.132969L37.0002 9.71168C37.2701 9.84472 37.4275 10.0886 37.4275 10.399V24.0576L37.9674 29.3347C37.9898 29.6452 37.8324 29.9334 37.585 30.0665L20.1533 39.9112C19.8834 40.0665 19.5685 40.0443 19.3211 39.8669L2.42919 30.2882C2.15928 30.1773 1.95685 29.9112 1.95685 29.6008ZM3.50883 17.5831V28.2039L8.0973 25.2993L3.50883 17.5831ZM23.5946 19.6673C24.4718 19.9556 25.1466 20.6873 25.3041 21.6186L35.8755 23.1485V11.286L29.2403 12.3946L23.5946 13.3259V19.6673ZM20.3107 21.9068C20.3782 20.8647 21.0755 19.9999 22.0427 19.6895V13.2594L14.4627 10.9312L10.3016 24.4789L20.3107 21.9068ZM25.0791 23.1485C24.6743 23.9689 23.8196 24.5232 22.8299 24.5232C21.9302 24.5232 21.143 24.0576 20.7156 23.3702L10.7964 25.9201L17.9715 31.9955L34.0537 24.4345L30.2299 23.8802L25.0791 23.1485ZM20.0183 1.79594L15.1375 9.5343L22.8749 11.9068L34.4135 9.97776L20.0183 1.79594Z" fill="white"/>
</g>
<defs>
<clipPath id="clip0_1_19104">
<rect width="135" height="40" fill="white"/>
</clipPath>
</defs>
</svg>
